<?xml version="1.0"?>
<svg xmlns="http://www.w3.org/2000/svg" xmlns:xlink="http://www.w3.org/1999/xlink" version="1.1" id="Layer_1" x="0px" y="0px" viewBox="0 0 512 512" style="enable-background:new 0 0 512 512;" xml:space="preserve" width="512px" height="512px" class=""><g><g>
	<g>
		<path style="fill:#4482C3" d="M401.067,102.4h-51.2c-4.71,0-8.533-3.823-8.533-8.533v-51.2c0-4.71,3.823-8.533,8.533-8.533h51.2    c4.71,0,8.533,3.823,8.533,8.533v51.2C409.6,98.577,405.777,102.4,401.067,102.4" data-original="#26B99A" class="active-path" data-old_color="#26B99A"/>
		<path style="fill:#4482C3" d="M162.133,102.4h-51.2c-4.71,0-8.533-3.823-8.533-8.533v-51.2c0-4.71,3.823-8.533,8.533-8.533h51.2    c4.71,0,8.533,3.823,8.533,8.533v51.2C170.667,98.577,166.844,102.4,162.133,102.4" data-original="#26B99A" class="active-path" data-old_color="#26B99A"/>
		<path style="fill:#4482C3" d="M59.733,290.133h-51.2C3.823,290.133,0,286.31,0,281.6v-51.2c0-4.71,3.823-8.533,8.533-8.533h51.2    c4.71,0,8.533,3.823,8.533,8.533v51.2C68.267,286.31,64.444,290.133,59.733,290.133" data-original="#26B99A" class="active-path" data-old_color="#26B99A"/>
		<path style="fill:#4482C3" d="M162.133,477.867h-51.2c-4.71,0-8.533-3.823-8.533-8.533v-51.2c0-4.71,3.823-8.533,8.533-8.533    h51.2c4.71,0,8.533,3.823,8.533,8.533v51.2C170.667,474.044,166.844,477.867,162.133,477.867" data-original="#26B99A" class="active-path" data-old_color="#26B99A"/>
		<path style="fill:#4482C3" d="M401.067,477.867h-51.2c-4.71,0-8.533-3.823-8.533-8.533v-51.2c0-4.71,3.823-8.533,8.533-8.533    h51.2c4.71,0,8.533,3.823,8.533,8.533v51.2C409.6,474.044,405.777,477.867,401.067,477.867" data-original="#26B99A" class="active-path" data-old_color="#26B99A"/>
		<path style="fill:#4482C3" d="M503.467,290.133h-51.2c-4.71,0-8.533-3.823-8.533-8.533v-51.2c0-4.71,3.823-8.533,8.533-8.533    h51.2c4.71,0,8.533,3.823,8.533,8.533v51.2C512,286.31,508.177,290.133,503.467,290.133" data-original="#26B99A" class="active-path" data-old_color="#26B99A"/>
	</g>
	<g>
		<path style="fill:#285680" d="M452.267,290.133c-1.126,0-2.193-0.247-3.183-0.64c0.068,0.026,0.128,0.077,0.188,0.102    L384.99,409.6h16.077c1.05,0,2.031,0.247,2.961,0.597l64.316-120.064H452.267z" data-original="#35495E" class="" data-old_color="#35495E"/>
		<path style="fill:#285680" d="M446.587,224.125c0.572-0.521,1.22-0.939,1.92-1.289    C447.807,223.186,447.159,223.604,446.587,224.125" data-original="#35495E" class="" data-old_color="#35495E"/>
		<polygon style="fill:#285680" points="170.666,76.8 341.332,76.8 341.332,59.733 170.666,59.733   " data-original="#35495E" class="" data-old_color="#35495E"/>
		<path style="fill:#285680" d="M444.342,227.379c-0.358,0.947-0.606,1.946-0.606,3.021    C443.736,229.333,443.983,228.326,444.342,227.379" data-original="#35495E" class="" data-old_color="#35495E"/>
		<path style="fill:#285680" d="M445.929,224.817c-0.469,0.529-0.853,1.109-1.178,1.749    C445.076,225.935,445.46,225.346,445.929,224.817" data-original="#35495E" class="" data-old_color="#35495E"/>
		<path style="fill:#285680" d="M67.658,227.379c0.358,0.947,0.606,1.954,0.606,3.021    C68.264,229.325,68.017,228.326,67.658,227.379" data-original="#35495E" class="" data-old_color="#35495E"/>
		<path style="fill:#285680" d="M127.012,409.6l-64.29-120.004c0.068-0.026,0.119-0.077,0.188-0.102    c-0.981,0.393-2.048,0.64-3.174,0.64H43.65l64.324,120.064c0.93-0.35,1.911-0.597,2.961-0.597H127.012z" data-original="#35495E" class="" data-old_color="#35495E"/>
		<path style="fill:#285680" d="M384.987,102.4l64.29,120.004c-0.068,0.026-0.119,0.077-0.188,0.102    c0.981-0.393,2.048-0.64,3.174-0.64h16.085l-64.324-120.064c-0.93,0.35-1.911,0.597-2.961,0.597H384.987z" data-original="#35495E" class="" data-old_color="#35495E"/>
		<path style="fill:#285680" d="M59.733,221.867c1.126,0,2.193,0.247,3.183,0.64c-0.068-0.026-0.128-0.077-0.188-0.102    L127.01,102.4h-16.077c-1.05,0-2.031-0.247-2.961-0.597L43.657,221.867H59.733z" data-original="#35495E" class="" data-old_color="#35495E"/>
		<path style="fill:#285680" d="M444.342,284.621c-0.358-0.947-0.606-1.954-0.606-3.021    C443.736,282.675,443.983,283.674,444.342,284.621" data-original="#35495E" class="" data-old_color="#35495E"/>
		<polygon style="fill:#285680" points="170.666,452.267 341.332,452.267 341.332,435.2 170.666,435.2   " data-original="#35495E" class="" data-old_color="#35495E"/>
		<path style="fill:#285680" d="M65.412,287.875c-0.572,0.521-1.22,0.939-1.92,1.289C64.192,288.814,64.841,288.396,65.412,287.875    " data-original="#35495E" class="" data-old_color="#35495E"/>
		<path style="fill:#285680" d="M445.929,287.183c-0.469-0.529-0.853-1.118-1.178-1.749    C445.076,286.074,445.46,286.654,445.929,287.183" data-original="#35495E" class="" data-old_color="#35495E"/>
		<path style="fill:#285680" d="M446.587,287.875c0.572,0.521,1.22,0.939,1.92,1.289    C447.807,288.814,447.159,288.396,446.587,287.875" data-original="#35495E" class="" data-old_color="#35495E"/>
		<path style="fill:#285680" d="M67.658,284.621c0.358-0.947,0.606-1.946,0.606-3.021    C68.264,282.667,68.017,283.674,67.658,284.621" data-original="#35495E" class="" data-old_color="#35495E"/>
		<path style="fill:#285680" d="M65.412,224.125c-0.572-0.521-1.22-0.939-1.92-1.289C64.192,223.186,64.841,223.604,65.412,224.125    " data-original="#35495E" class="" data-old_color="#35495E"/>
		<path style="fill:#285680" d="M66.07,287.183c0.469-0.529,0.853-1.109,1.178-1.749C66.924,286.066,66.54,286.654,66.07,287.183" data-original="#35495E" class="" data-old_color="#35495E"/>
		<path style="fill:#285680" d="M66.07,224.817c0.469,0.529,0.853,1.118,1.178,1.749C66.924,225.926,66.54,225.346,66.07,224.817" data-original="#35495E" class="" data-old_color="#35495E"/>
	</g>
</g></g> </svg>
