<?xml version="1.0"?>
<svg xmlns="http://www.w3.org/2000/svg" xmlns:xlink="http://www.w3.org/1999/xlink" version="1.1" id="Capa_1" x="0px" y="0px" viewBox="0 0 512 512" style="enable-background:new 0 0 512 512;" xml:space="preserve" width="512px" height="512px" class=""><g><path style="fill:#4482C3" d="M503.015,37.838L503.015,37.838c-11.792-11.792-30.843-12.004-42.895-0.479L138.403,346.611  l48.721,63.285L503.494,80.732C515.019,68.68,514.806,49.629,503.015,37.838z" data-original="#00AAF0" class="" data-old_color="#08263A"/><path style="fill:#285680" d="M162.691,378.161l24.431,31.735L503.494,80.732c11.525-12.052,11.312-31.103-0.479-42.895  L162.691,378.161z" data-original="#0096DC" class="" data-old_color="#0096DC"/><polygon style="fill:#828D8D" points="223.534,264.778 138.403,346.611 187.123,409.895 276.016,317.408 276.077,317.322 " data-original="#888890" class="active-path" data-old_color="#818D8D"/><polygon style="fill:#2F454B" points="249.804,291.049 162.691,378.161 187.123,409.895 276.016,317.408 276.077,317.322 " data-original="#56535A" class="" data-old_color="#56535A"/><path style="fill:#FFEA84;" d="M169.704,448.001c23.431-23.431,23.431-61.42,0-84.852c-23.431-23.432-61.42-23.431-84.852,0  L0,448.001C46.863,494.863,122.842,494.863,169.704,448.001" data-original="#FFEA84"/><path style="fill:#FFDC40;" d="M60.248,480.603c38.293,7.984,79.73-2.878,109.455-32.603c22.082-22.082,23.345-57.087,3.807-80.658  L60.248,480.603z" data-original="#FFDC40"/></g> </svg>
