<?xml version="1.0"?>
<svg xmlns="http://www.w3.org/2000/svg" xmlns:xlink="http://www.w3.org/1999/xlink" version="1.1" id="Layer_1" x="0px" y="0px" viewBox="0 0 512 512" style="enable-background:new 0 0 512 512;" xml:space="preserve" width="512px" height="512px" class=""><g transform="matrix(1.83697e-16, 1, 1, -1.83697e-16, -5.68434e-14, 0)"><g>
	<path style="fill:#285680" d="M459.033,406.069c-11.238,0-21.645,3.522-30.217,9.498L227.379,270.795   c1.368-4.705,2.136-9.657,2.136-14.795s-0.768-10.09-2.136-14.795L428.816,96.433c8.572,5.976,18.979,9.498,30.217,9.498   c29.246,0,52.966-23.72,52.966-52.966S488.279,0,459.033,0s-52.966,23.72-52.966,52.966c0,5.138,0.768,10.09,2.136,14.795   L206.767,212.533c-8.572-5.976-18.979-9.498-30.217-9.498c-29.246,0-52.966,23.72-52.966,52.966s23.72,52.966,52.966,52.966   c11.238,0,21.645-3.522,30.217-9.498l201.437,144.772c-1.368,4.705-2.136,9.657-2.136,14.795c0,29.246,23.72,52.966,52.966,52.966   s52.966-23.72,52.966-52.966S488.279,406.069,459.033,406.069" data-original="#8697CB" class="" data-old_color="#8697CB"/>
	<g>
		<path style="fill:#BBC3C3" d="M329.391,344.112c14.998-25.953,23.711-55.985,23.711-88.108c0-32.132-8.713-62.164-23.711-88.117    l-102.012,73.322c1.368,4.696,2.136,9.657,2.136,14.795c0,5.138-0.768,10.09-2.136,14.786L329.391,344.112z" data-original="#ECF0F1" class="active-path" data-old_color="#BCC4C4"/>
		<path style="fill:#BBC3C3" d="M206.77,299.465c-8.572,5.976-18.979,9.499-30.217,9.499c-29.255,0-52.966-23.711-52.966-52.966    c0-29.246,23.711-52.966,52.966-52.966c11.238,0,21.645,3.531,30.217,9.498l101.967-73.287    c-32.344-36.59-79.501-59.798-132.184-59.798c-97.51,0-176.552,79.042-176.552,176.552S79.044,432.55,176.553,432.55    c52.683,0,99.84-23.199,132.184-59.798L206.77,299.465z" data-original="#ECF0F1" class="active-path" data-old_color="#BCC4C4"/>
	</g>
</g></g> </svg>
