<?xml version="1.0"?>
<svg xmlns="http://www.w3.org/2000/svg" xmlns:xlink="http://www.w3.org/1999/xlink" version="1.1" id="Layer_1" x="0px" y="0px" viewBox="0 0 512 512" style="enable-background:new 0 0 512 512;" xml:space="preserve" width="512px" height="512px"><g><g>
	<circle style="fill:#E21B1B;" cx="75.584" cy="207.427" r="43.816" data-original="#E21B1B"/>
	<path style="fill:#E21B1B;" d="M151.16,348.371c0,0,0,2.048,0-38.784s-44.56-41.576-44.56-41.576H44.56   c0,0-44.56,0.496-44.56,41.576c0,40.824,0,38.784,0,38.784H151.16z" data-original="#E21B1B"/>
</g><g>
	<circle style="fill:#8A6666" cx="256" cy="207.427" r="43.816" data-original="#222020" class="active-path" data-old_color="#8C6767"/>
	<path style="fill:#8A6666" d="M331.584,348.371c0,0,0,2.048,0-38.784s-44.56-41.576-44.56-41.576h-62.032   c0,0-44.56,0.496-44.56,41.576c0,40.824,0,38.784,0,38.784H331.584z" data-original="#222020" class="active-path" data-old_color="#8C6767"/>
	<circle style="fill:#8A6666" cx="436.4" cy="207.427" r="43.816" data-original="#222020" class="active-path" data-old_color="#8C6767"/>
	<path style="fill:#8A6666" d="M512,348.371c0,0,0,2.048,0-38.784s-44.56-41.576-44.56-41.576h-62.032   c0,0-44.56,0.496-44.56,41.576c0,40.824,0,38.784,0,38.784H512z" data-original="#222020" class="active-path" data-old_color="#8C6767"/>
</g></g> </svg>
